<?xml version="1.0" encoding="UTF-8"?>
<!DOCTYPE svg PUBLIC "-//W3C//DTD SVG 1.1//EN" "http://www.w3.org/Graphics/SVG/1.1/DTD/svg11.dtd">
<!-- Creator: CorelDRAW X6 -->
<svg xmlns="http://www.w3.org/2000/svg" xml:space="preserve" width="297mm" height="210mm" version="1.1" style="shape-rendering:geometricPrecision; text-rendering:geometricPrecision; image-rendering:optimizeQuality; fill-rule:evenodd; clip-rule:evenodd"
viewBox="0 0 29700 21000"
 xmlns:xlink="http://www.w3.org/1999/xlink">
 <defs>
  <style type="text/css">
   <![CDATA[
    .str0 {stroke:black;stroke-width:84.67}
    .str1 {stroke:black;stroke-width:84.67;stroke-linecap:round}
    .str2 {stroke:black;stroke-width:84.67;stroke-linecap:round;stroke-linejoin:round}
    .fil0 {fill:none}
   ]]>
  </style>
 </defs>
 <g id="圖層_x0020_1">
  <metadata id="CorelCorpID_0Corel-Layer"/>
  <ellipse class="fil0 str0" cx="4573" cy="4442" rx="1949" ry="1993"/>
  <ellipse class="fil0 str0" cx="15403" cy="4460" rx="1596" ry="2293"/>
  <path class="fil0 str1" d="M9961 1937c0,0 -2769,2611 0,5009"/>
  <path class="fil0 str1" d="M9981 1937c0,0 2769,2611 0,5009"/>
  <polyline class="fil0 str0" points="2626,4540 3210,5052 4577,5510 5944,5052 5942,5861 5124,5854 4573,6435 4013,5837 3208,5865 3210,5052 3422,4540 3140,4002 3117,3116 3925,3076 4573,2449 5204,3094 6020,3107 5962,3949 6520,4524 5944,5052 5689,4549 5124,5854 4577,5510 4013,5837 3784,5244 3422,4540 3925,3076 4595,3394 5204,3094 5415,3764 5962,3949 5689,4549 5415,3764 "/>
  <polyline class="fil0 str0" points="2721,3818 3140,4002 2626,4540 "/>
  <line class="fil0 str0" x1="3140" y1="4002" x2="4673" y2= "3355" />
  <line class="fil0 str0" x1="3699" y1="2660" x2="3925" y2= "3076" />
  <line class="fil0 str0" x1="5204" y1="3094" x2="5425" y2= "2649" />
  <line class="fil0 str0" x1="4595" y1="3394" x2="5415" y2= "3764" />
  <line class="fil0 str0" x1="6005" y1="3994" x2="6420" y2= "3805" />
  <line class="fil0 str0" x1="5944" y1="5052" x2="6333" y2= "5299" />
  <line class="fil0 str0" x1="5124" y1="5854" x2="5253" y2= "6310" />
  <line class="fil0 str0" x1="4013" y1="5837" x2="3883" y2= "6307" />
  <line class="fil0 str0" x1="2797" y1="5266" x2="3210" y2= "5052" />
  <rect class="fil0 str0" x="18997" y="2662" width="3572" height="3528"/>
  <path class="fil0 str0" d="M26273 2891l-106 -132c0,0 -1138,1314 -1861,3254 0,0 1729,362 3775,18 0,0 -882,-2064 -1808,-3140z"/>
  <polygon class="fil0 str0" points="3545,10207 3201,10551 3193,13920 3669,14317 5547,14334 5944,13946 5953,10559 5600,10180 "/>
  <polygon class="fil0 str0" points="3684,10351 3388,10671 3380,13803 3702,14117 5493,14140 5752,13827 5757,10648 5504,10353 "/>
  <polygon class="fil0 str0" points="3706,10514 3539,10709 3563,13751 3757,13957 5414,13972 5603,13768 5605,10714 5433,10534 "/>
  <polygon class="fil0 str0" points="3782,10688 3706,10806 3709,13662 3826,13799 5351,13803 5447,13702 5439,10795 5360,10688 "/>
  <line class="fil0 str0" x1="3201" y1="10572" x2="3706" y2= "10806" />
  <line class="fil0 str0" x1="3545" y1="10207" x2="3782" y2= "10688" />
  <line class="fil0 str0" x1="5600" y1="10180" x2="5360" y2= "10688" />
  <line class="fil0 str0" x1="5953" y1="10559" x2="5439" y2= "10795" />
  <line class="fil0 str0" x1="3193" y1="13920" x2="3709" y2= "13662" />
  <line class="fil0 str0" x1="3669" y1="14317" x2="3826" y2= "13799" />
  <line class="fil0 str0" x1="5351" y1="13803" x2="5547" y2= "14334" />
  <line class="fil0 str0" x1="5447" y1="13702" x2="5944" y2= "13946" />
  <polygon class="fil0 str0" points="9981,1937 9708,2516 9126,5091 9066,5872 9691,6352 9961,6947 10273,6352 10885,5856 10846,5091 10264,2516 "/>
  <polyline class="fil0 str0" points="8733,4464 9532,5629 9990,6149 10448,6483 "/>
  <polyline class="fil0 str0" points="10411,2436 9964,2745 9117,3848 8733,4464 "/>
  <polyline class="fil0 str0" points="9109,3116 9117,3848 9486,5563 9691,6352 "/>
  <polyline class="fil0 str0" points="9512,6503 9990,6149 10846,5091 11209,4464 10435,3273 9964,2745 9539,2427 "/>
  <polyline class="fil0 str0" points="10264,2516 10795,3040 10822,3868 10496,5524 10273,6352 "/>
  <line class="fil0 str0" x1="9701" y1="2548" x2="9161" y2= "3014" />
  <line class="fil0 str0" x1="8850" y1="3766" x2="9117" y2= "3848" />
  <line class="fil0 str0" x1="10822" y1="3868" x2="11099" y2= "3791" />
  <line class="fil0 str0" x1="10846" y1="5091" x2="11135" y2= "5214" />
  <line class="fil0 str0" x1="8801" y1="5186" x2="9126" y2= "5091" />
  <polygon class="fil0 str0" points="15403,2167 14846,2719 14387,4421 14184,5029 15357,5885 16574,5012 16999,4460 16610,3874 15384,2904 14661,3402 14149,3918 14387,4421 14687,5396 14951,6123 15357,5885 15860,6141 16103,5350 16363,4430 15948,2728 15384,2904 14846,2719 14098,3139 14149,3918 13807,4460 14184,5029 14115,5814 14951,6123 15403,6753 15860,6141 16687,5823 16574,5012 16363,4430 16610,3874 16709,3141 15948,2728 "/>
  <line class="fil0 str0" x1="14607" y1="2471" x2="14846" y2= "2719" />
  <line class="fil0 str0" x1="15948" y1="2728" x2="16169" y2= "2447" />
  <line class="fil0 str0" x1="13866" y1="3839" x2="14146" y2= "3874" />
  <line class="fil0 str0" x1="16610" y1="3874" x2="16934" y2= "3807" />
  <line class="fil0 str0" x1="13871" y1="5106" x2="14184" y2= "5029" />
  <line class="fil0 str0" x1="16574" y1="5012" x2="16940" y2= "5084" />
  <line class="fil0 str0" x1="14951" y1="6123" x2="14588" y2= "6432" />
  <line class="fil0 str0" x1="15906" y1="6123" x2="16179" y2= "6464" />
  <polygon class="fil0 str0" points="18997,2662 19555,2895 20755,3107 21910,3292 22324,3230 21901,5541 22042,5991 19687,5515 19238,3222 19626,3327 22016,2878 21910,3292 22324,5709 21901,5541 19476,5973 19687,5515 19238,5717 19626,3327 19555,2895 22016,2878 22569,2662 22324,3230 22324,5709 22569,6189 22042,5991 19476,5973 18997,6189 19238,5717 19238,3222 "/>
  <polygon class="fil0 str0" points="24306,6013 26187,5709 28081,6031 26170,3433 24750,5629 "/>
  <polygon class="fil0 str0" points="26167,2759 25434,4571 24909,5691 24901,5917 26192,6179 27495,5931 27563,5700 27741,5569 27253,4359 26373,3248 "/>
  <polygon class="fil0 str0" points="24750,5629 24909,5691 27563,5700 26373,3248 26170,3433 25960,3272 25194,4163 "/>
  <path class="fil0 str1" d="M9977 11093c0,0 278,-600 948,-556 670,44 966,913 829,1552 -137,639 -851,1380 -1786,1927"/>
  <path class="fil0 str1" d="M9969 11093c0,0 -278,-600 -948,-556 -670,44 -966,913 -829,1552 137,639 851,1380 1786,1927"/>
  <polyline class="fil0 str0" points="10281,10730 10630,10925 10865,11328 11110,11883 11124,12425 10621,12654 9594,13216 8777,13078 8787,12372 9325,12654 10352,13224 11126,13124 11124,12425 11723,12001 11371,11472 11328,10686 8584,11410 9325,12654 9978,14017 10621,12654 11371,11472 8614,10689 8584,11410 8172,11971 8787,12372 8877,11903 9075,11281 9327,10892 9667,10731 "/>
  <line class="fil0 str0" x1="8234" y1="11273" x2="8619" y2= "11469" />
  <line class="fil0 str0" x1="9327" y1="10892" x2="9316" y2= "10561" />
  <line class="fil0 str0" x1="10683" y1="10550" x2="10646" y2= "10866" />
  <line class="fil0 str0" x1="11371" y1="11472" x2="11702" y2= "11241" />
  <line class="fil0 str0" x1="11189" y1="12378" x2="11543" y2= "12593" />
  <line class="fil0 str0" x1="10352" y1="13224" x2="10657" y2= "13548" />
  <line class="fil0 str0" x1="9594" y1="13216" x2="9318" y2= "13570" />
  <line class="fil0 str0" x1="8406" y1="12598" x2="8787" y2= "12372" />
  <polygon class="fil0 str0" points="14150,10573 13636,11162 13627,13565 14226,14129 16594,14144 17095,13588 17105,11108 16572,10551 "/>
  <polyline class="fil0 str2" points="13636,11162 14299,11313 16459,10899 16830,11243 16442,11357 14263,10908 13904,11223 13632,12364 13972,13509 14290,13818 15357,14136 16495,13809 16830,13448 17100,12348 16830,11243 16415,13342 16448,13823 14334,13351 13958,13462 14299,11313 14263,10908 15361,10562 16459,10899 16442,11357 16830,13448 16415,13342 14290,13818 14334,13351 13904,11223 13958,13462 13627,13565 "/>
  <polyline class="fil0 str0" points="14150,10573 14263,10908 16459,10899 16572,10551 "/>
  <polyline class="fil0 str0" points="17104,11163 16830,11243 16830,13448 17095,13588 "/>
  <line class="fil0 str0" x1="16448" y1="13823" x2="16594" y2= "14144" />
  <polyline class="fil0 str0" points="16323,13795 14290,13818 14226,14129 "/>
  <path class="fil0 str0" d="M20825 10158c0,0 -1887,0 -1446,2328 0,0 238,1261 1438,2011"/>
  <path class="fil0 str0" d="M20765 10158c0,0 1887,0 1446,2328 0,0 -238,1261 -1438,2011"/>
  <polygon class="fil0 str0" points="19744,10611 20313,10519 20795,10159 21284,10519 21859,10624 21866,11296 22218,11754 21857,12433 21906,13279 21142,13818 20774,14497 20419,13791 19723,13209 19723,12433 19312,11771 19723,11251 20128,11110 20313,10519 20807,10793 21284,10519 21460,11110 21866,11296 21636,11816 21857,12433 21213,12971 21142,13818 20781,13527 20419,13791 20402,12945 19723,12433 19961,11745 20128,11110 20807,10793 21460,11110 21636,11816 21213,12971 20781,13527 20402,12945 19723,11251 "/>
  <line class="fil0 str0" x1="19431" y1="11107" x2="19723" y2= "11251" />
  <line class="fil0 str0" x1="20313" y1="10519" x2="20218" y2= "10294" />
  <line class="fil0 str0" x1="21284" y1="10519" x2="21319" y2= "10273" />
  <line class="fil0 str0" x1="21866" y1="11296" x2="22165" y2= "11122" />
  <line class="fil0 str0" x1="21857" y1="12433" x2="22206" y2= "12512" />
  <line class="fil0 str0" x1="21142" y1="13818" x2="21357" y2= "14028" />
  <line class="fil0 str0" x1="20190" y1="13984" x2="20419" y2= "13791" />
  <line class="fil0 str0" x1="19388" y1="12528" x2="19723" y2= "12433" />
  <path class="fil0 str0" d="M24785 13818c-602,-976 -227,-2628 9,-2884 0,0 1270,-670 2910,18 0,0 538,1499 0,2875 0,0 -1482,767 -2919,-9z"/>
  <polyline class="fil0 str0" points="25452,10718 25619,11094 26249,10642 26862,11094 27704,10952 27559,11737 27943,12391 27621,12866 27704,13827 27074,13660 26241,14165 25433,13642 24785,13818 24878,12893 24461,12376 24895,11720 24794,10934 25619,11094 26183,11358 26862,11094 27030,11676 27559,11737 27391,12417 27621,12866 26254,13360 25433,13642 25425,13122 24878,12893 25425,11649 26183,11358 27030,11676 27391,12417 27038,13077 27074,13660 25425,13122 25094,12401 24895,11720 25425,11649 25619,11094 "/>
  <line class="fil0 str0" x1="26999" y1="10728" x2="26862" y2= "11094" />
  <line class="fil0 str0" x1="27074" y1="13660" x2="27234" y2= "14007" />
  <line class="fil0 str0" x1="25433" y1="13642" x2="25247" y2= "14017" />
 </g>
</svg>
